{"title":"Scooby Doo And The Goblin King (2008) BRrip 720p x264 Dual Audio","uid":11089573,"size":846254238,"categoryP":"video","categoryS":"hd___movies","magnet":"?xt=urn:btih:15be21b08a579b582c31295cad66aa63855b4147&amp;dn=Scooby+Doo+And+The+Goblin+King+%282008%29+BRrip+720p+x264+Dual+Audio&amp;tr=udp%3A%2F%2Ftracker.openbittorrent.com%3A80&amp;tr=udp%3A%2F%2Fopen.demonii.com%3A1337&amp;tr=udp%3A%2F%2Ftracker.coppersurfer.tk%3A6969&amp;tr=udp%3A%2F%2Fexodus.desync.com%3A6969","seeders":4,"leechers":4,"uploader":"Xdesiars","files":5,"time":1411504618,"description":"Format                                   : Matroska\nFormat version                           : Version 2\nFile size                                : 797 MiB\nDuration                                 : 1h 14mn\nOverall bit rate                         : 1 501 Kbps\nMovie name                               : Scooby Doo And The Goblin King (2008) by XdesiArsenal [ExD-XMR]\nEncoded date                             : UTC 2014-09-23 17:50:53\nWriting application                      : mkvmerge v5.0.1 ('Es ist Sommer') built on Nov 23 2011 20:48:57\nWriting library                          : libebml v1.2.2 + libmatroska v1.3.0\nTITLE                                    : Scooby-Doo and the Goblin King\nARTIST                                   : Joe Sichta\nDATE_RELEASED                            : 2008-09-23T07:00:00Z\nGENRE                                    : Kids &amp; Family\n\nVideo\nID                                       : 1\nFormat                                   : AVC\nFormat/Info                              : Advanced Video Codec\nFormat profile                           : &lt;a class=&quot;__cf_email__&quot; href=&quot;/cdn-cgi/l/email-protection&quot; data-cfemail=&quot;6c210d05022c205f425d&quot;&gt;[email&amp;#160;protected]&lt;/a&gt;&lt;script data-cfhash='f9e31' type=&quot;text/javascript&quot;&gt;\n/* &lt;![CDATA[ */!function(){try{var t=&quot;currentScript&quot;in document?document.currentScript:function(){for(var t=document.getElementsByTagName(&quot;script&quot;),e=t.length;e--;)if(t[e].getAttribute(&quot;data-cfhash&quot;))return t[e]}();if(t&amp;&amp;t.previousSibling){var e,r,n,i,c=t.previousSibling,a=c.getAttribute(&quot;data-cfemail&quot;);if(a){for(e=&quot;&quot;,r=parseInt(a.substr(0,2),16),n=2;a.length-n;n+=2)i=parseInt(a.substr(n,2),16)^r,e+=String.fromCharCode(i);e=document.createTextNode(e),c.parentNode.replaceChild(e,c)}t.parentNode.removeChild(t);}}catch(u){}}()/* ]]&gt; */&lt;/script&gt;\nFormat settings, CABAC                   : Yes\nFormat settings, ReFrames                : 4 frames\nMuxing mode                              : Header stripping\nCodec ID                                 : V_MPEG4/ISO/AVC\nDuration                                 : 1h 14mn\nBit rate                                 : 1 128 Kbps\nWidth                                    : 1 280 pixels\nHeight                                   : 544 pixels\nDisplay aspect ratio                     : 16:9\nFrame rate mode                          : Constant\nFrame rate                               : 23.976 fps\nColor space                              : YUV\nChroma subsampling                       : 4:2:0\nBit depth                                : 8 bits\nScan type                                : Progressive\nBits/(Pixel*Frame)                       : 0.068\nStream size                              : 577 MiB (72%)\nTitle                                    : Scooby Doo And The Goblin King (2008) by XdesiArsenal [ExD-XMR]\nWriting library                          : x264 core 112\nLanguage                                 : English\nDefault                                  : Yes\nForced                                   : No\nColor primaries                          : BT.709\nTransfer characteristics                 : BT.709\nMatrix coefficients                      : BT.709\n\nAudio #1\nID                                       : 2\nFormat                                   : AC-3\nFormat/Info                              : Audio Coding 3\nMode extension                           : CM (complete main)\nFormat settings, Endianness              : Big\nMuxing mode                              : Header stripping\nCodec ID                                 : A_AC3\nDuration                                 : 1h 14mn\nBit rate mode                            : Constant\nBit rate                                 : 192 Kbps\nChannel(s)                               : 2 channels\nChannel positions                        : Front: L R\nSampling rate                            : 48.0 KHz\nBit depth                                : 16 bits\nCompression mode                         : Lossy\nStream size                              : 102 MiB (13%)\nTitle                                    : XdesiArsenal\nLanguage                                 : English\nDefault                                  : No\nForced                                   : No\n\nAudio #2\nID                                       : 3\nFormat                                   : AC-3\nFormat/Info                              : Audio Coding 3\nMode extension                           : CM (complete main)\nFormat settings, Endianness              : Big\nMuxing mode                              : Header stripping\nCodec ID                                 : A_AC3\nDuration                                 : 1h 14mn\nBit rate mode                            : Constant\nBit rate                                 : 192 Kbps\nChannel(s)                               : 2 channels\nChannel positions                        : Front: L R\nSampling rate                            : 48.0 KHz\nBit depth                                : 16 bits\nCompression mode                         : Lossy\nDelay relative to video                  : 700ms\nStream size                              : 102 MiB (13%)\nTitle                                    : XdesiArsenal\nLanguage                                 : Hindi\nDefault                                  : Yes\nForced                                   : No\n","torrent":{"xt":"urn:btih:15be21b08a579b582c31295cad66aa63855b4147","amp;dn":"Scooby+Doo+And+The+Goblin+King+%282008%29+BRrip+720p+x264+Dual+Audio","amp;tr":["udp%3A%2F%2Ftracker.openbittorrent.com%3A80","udp%3A%2F%2Fopen.demonii.com%3A1337","udp%3A%2F%2Ftracker.coppersurfer.tk%3A6969","udp%3A%2F%2Fexodus.desync.com%3A6969"],"infoHash":"15be21b08a579b582c31295cad66aa63855b4147","infoHashBuffer":{"type":"Buffer","data":[21,190,33,176,138,87,155,88,44,49,41,92,173,102,170,99,133,91,65,71]},"announce":[],"urlList":[]}}